<svg width="26" height="21" viewBox="0 0 26 21" fill="none" xmlns="http://www.w3.org/2000/svg">
<path d="M11.66 3.15849L7.28 11.3185L4.52 12.0985C4.84 11.4985 5.2 11.0185 5.6 10.6585C6 10.2585 6.46 10.0585 6.98 10.0585C8.14 10.0585 9.18 10.5385 10.1 11.4985C11.06 12.4185 11.54 13.6185 11.54 15.0985C11.54 16.6585 11 17.9985 9.92 19.1185C8.88 20.2385 7.58 20.7985 6.02 20.7985C4.54 20.7985 3.24 20.2585 2.12 19.1785C1.04 18.0585 0.5 16.6985 0.5 15.0985C0.5 14.4585 0.62 13.7185 0.86 12.8785C1.14 12.0385 1.64 10.9385 2.36 9.57849L7.16 0.698486L11.66 3.15849ZM25.16 3.15849L20.78 11.3185L18.08 12.0985C18.36 11.4985 18.7 11.0185 19.1 10.6585C19.54 10.2585 20 10.0585 20.48 10.0585C21.64 10.0585 22.7 10.5385 23.66 11.4985C24.62 12.4185 25.1 13.6185 25.1 15.0985C25.1 16.6585 24.56 17.9985 23.48 19.1185C22.44 20.2385 21.14 20.7985 19.58 20.7985C18.1 20.7985 16.8 20.2585 15.68 19.1785C14.6 18.0585 14.06 16.6985 14.06 15.0985C14.06 14.4585 14.18 13.7185 14.42 12.8785C14.66 12.0385 15.14 10.9385 15.86 9.57849L20.72 0.698486L25.16 3.15849Z" fill="#0A2942"/>
</svg>
