<svg width="759" height="50" viewBox="0 0 759 50" fill="none" xmlns="http://www.w3.org/2000/svg">
<mask id="path-1-outside-1_198_2" maskUnits="userSpaceOnUse" x="-0.561035" y="0" width="760" height="50" fill="black">
<rect fill="white" x="-0.561035" width="760" height="50"/>
<path d="M18.014 48.645C14.3306 48.645 11.1673 48.0167 8.52397 46.76C5.92396 45.5033 3.5623 43.6183 1.43896 41.105L7.28897 35.255C8.6323 37.0317 10.1923 38.4183 11.969 39.415C13.7456 40.3683 15.9123 40.845 18.469 40.845C20.7656 40.845 22.5856 40.39 23.929 39.48C25.3156 38.57 26.009 37.3133 26.009 35.71C26.009 34.3233 25.619 33.1967 24.839 32.33C24.059 31.4633 23.019 30.7267 21.719 30.12C20.4623 29.5133 19.054 28.9717 17.494 28.495C15.9773 27.975 14.439 27.39 12.879 26.74C11.3623 26.09 9.95396 25.2883 8.65396 24.335C7.3973 23.3383 6.37896 22.0817 5.59896 20.565C4.81896 19.005 4.42896 17.055 4.42896 14.715C4.42896 11.9417 5.10063 9.58 6.44396 7.63C7.7873 5.68 9.62897 4.185 11.969 3.145C14.309 2.105 16.9523 1.585 19.899 1.585C23.019 1.585 25.8356 2.17 28.349 3.34C30.8623 4.51 32.9206 6.02667 34.524 7.89L28.674 13.74C27.3306 12.2667 25.944 11.1833 24.514 10.49C23.1273 9.79667 21.5456 9.45 19.769 9.45C17.7323 9.45 16.129 9.84 14.959 10.62C13.789 11.4 13.204 12.5267 13.204 14C13.204 15.2567 13.594 16.275 14.374 17.055C15.154 17.835 16.1723 18.5067 17.429 19.07C18.729 19.6333 20.1373 20.175 21.654 20.695C23.214 21.215 24.7523 21.8 26.269 22.45C27.829 23.1 29.2373 23.945 30.494 24.985C31.794 26.025 32.834 27.3683 33.614 29.015C34.394 30.6183 34.784 32.6117 34.784 34.995C34.784 39.2417 33.289 42.5783 30.299 45.005C27.309 47.4317 23.214 48.645 18.014 48.645Z"/>
<path d="M55.6119 48.645C52.3186 48.645 49.3936 47.9517 46.8369 46.565C44.2802 45.135 42.2436 43.185 40.7269 40.715C39.2536 38.245 38.5169 35.4283 38.5169 32.265C38.5169 29.145 39.2319 26.3717 40.6619 23.945C42.1352 21.475 44.1286 19.525 46.6419 18.095C49.1552 16.6217 51.9502 15.885 55.0269 15.885C58.0602 15.885 60.7252 16.5783 63.0219 17.965C65.3619 19.3083 67.1819 21.1717 68.4819 23.555C69.8252 25.895 70.4969 28.56 70.4969 31.55C70.4969 32.1133 70.4536 32.6983 70.3669 33.305C70.3236 33.8683 70.2152 34.5183 70.0419 35.255L43.6519 35.32V28.95L66.0769 28.885L62.6319 31.55C62.5452 29.6867 62.1986 28.1267 61.5919 26.87C61.0286 25.6133 60.1836 24.66 59.0569 24.01C57.9736 23.3167 56.6302 22.97 55.0269 22.97C53.3369 22.97 51.8636 23.36 50.6069 24.14C49.3502 24.8767 48.3752 25.9383 47.6819 27.325C47.0319 28.6683 46.7069 30.2717 46.7069 32.135C46.7069 34.0417 47.0536 35.71 47.7469 37.14C48.4836 38.5267 49.5236 39.61 50.8669 40.39C52.2102 41.1267 53.7702 41.495 55.5469 41.495C57.1502 41.495 58.6019 41.235 59.9019 40.715C61.2019 40.1517 62.3286 39.3283 63.2819 38.245L68.2869 43.25C66.7702 45.0267 64.9069 46.37 62.6969 47.28C60.5302 48.19 58.1686 48.645 55.6119 48.645Z"/>
<path d="M95.7829 47.995L83.6279 31.81L95.7179 16.6H105.533L91.3629 33.76L91.6879 29.6L106.183 47.995H95.7829ZM75.7629 47.995V1H84.2779V47.995H75.7629Z"/>
<path d="M123.399 48.645C120.235 48.645 117.375 47.93 114.819 46.5C112.305 45.0267 110.29 43.055 108.774 40.585C107.3 38.0717 106.564 35.2767 106.564 32.2C106.564 29.1233 107.3 26.3717 108.774 23.945C110.247 21.475 112.262 19.525 114.819 18.095C117.375 16.6217 120.214 15.885 123.334 15.885C126.54 15.885 129.4 16.6217 131.914 18.095C134.47 19.525 136.485 21.475 137.959 23.945C139.432 26.3717 140.169 29.1233 140.169 32.2C140.169 35.2767 139.432 38.0717 137.959 40.585C136.485 43.055 134.47 45.0267 131.914 46.5C129.4 47.93 126.562 48.645 123.399 48.645ZM123.334 40.715C124.937 40.715 126.345 40.3683 127.559 39.675C128.815 38.9383 129.769 37.9417 130.419 36.685C131.112 35.385 131.459 33.9117 131.459 32.265C131.459 30.6183 131.112 29.1667 130.419 27.91C129.725 26.6533 128.772 25.6783 127.559 24.985C126.345 24.2483 124.937 23.88 123.334 23.88C121.774 23.88 120.387 24.2483 119.174 24.985C117.96 25.6783 117.007 26.6533 116.314 27.91C115.62 29.1667 115.274 30.6183 115.274 32.265C115.274 33.9117 115.62 35.385 116.314 36.685C117.007 37.9417 117.96 38.9383 119.174 39.675C120.387 40.3683 121.774 40.715 123.334 40.715Z"/>
<path d="M145.651 47.995V1H154.166V47.995H145.651Z"/>
<path d="M174.84 48.645C171.98 48.645 169.402 47.93 167.105 46.5C164.809 45.07 163.01 43.12 161.71 40.65C160.41 38.18 159.76 35.4067 159.76 32.33C159.76 29.21 160.41 26.415 161.71 23.945C163.01 21.475 164.809 19.525 167.105 18.095C169.402 16.665 171.98 15.95 174.84 15.95C177.094 15.95 179.109 16.405 180.885 17.315C182.662 18.225 184.07 19.5033 185.11 21.15C186.194 22.7533 186.779 24.5733 186.865 26.61V37.92C186.779 40 186.194 41.8417 185.11 43.445C184.07 45.0483 182.662 46.3267 180.885 47.28C179.109 48.19 177.094 48.645 174.84 48.645ZM176.4 40.78C178.784 40.78 180.712 40 182.185 38.44C183.659 36.8367 184.395 34.7783 184.395 32.265C184.395 30.6183 184.049 29.1667 183.355 27.91C182.705 26.61 181.774 25.6133 180.56 24.92C179.39 24.1833 178.004 23.815 176.4 23.815C174.84 23.815 173.454 24.1833 172.24 24.92C171.07 25.6133 170.139 26.61 169.445 27.91C168.795 29.1667 168.47 30.6183 168.47 32.265C168.47 33.955 168.795 35.45 169.445 36.75C170.139 38.0067 171.07 39.0033 172.24 39.74C173.454 40.4333 174.84 40.78 176.4 40.78ZM183.94 47.995V39.545L185.305 31.875L183.94 24.335V16.6H192.39V47.995H183.94Z"/>
<path d="M221.048 47.995V29.99C221.048 28.1267 220.463 26.61 219.293 25.44C218.123 24.27 216.606 23.685 214.743 23.685C213.53 23.685 212.446 23.945 211.493 24.465C210.54 24.985 209.781 25.7217 209.218 26.675C208.698 27.6283 208.438 28.7333 208.438 29.99L205.123 28.3C205.123 25.83 205.643 23.685 206.683 21.865C207.723 20.0017 209.153 18.55 210.973 17.51C212.836 16.47 214.96 15.95 217.343 15.95C219.726 15.95 221.828 16.47 223.648 17.51C225.511 18.55 226.963 19.98 228.003 21.8C229.043 23.62 229.563 25.7217 229.563 28.105V47.995H221.048ZM199.923 47.995V1H208.438V47.995H199.923Z"/>
<path d="M250.027 47.995V2.3H258.867V47.995H250.027Z"/>
<path d="M288.46 47.995V29.99C288.46 28.1267 287.875 26.61 286.705 25.44C285.535 24.27 284.019 23.685 282.155 23.685C280.942 23.685 279.859 23.945 278.905 24.465C277.952 24.985 277.194 25.7217 276.63 26.675C276.11 27.6283 275.85 28.7333 275.85 29.99L272.535 28.3C272.535 25.83 273.055 23.685 274.095 21.865C275.179 20.0017 276.652 18.55 278.515 17.51C280.422 16.47 282.567 15.95 284.95 15.95C287.247 15.95 289.305 16.535 291.125 17.705C292.945 18.8317 294.375 20.3267 295.415 22.19C296.455 24.01 296.975 25.9817 296.975 28.105V47.995H288.46ZM267.335 47.995V16.6H275.85V47.995H267.335Z"/>
<path d="M317.094 48.645C314.191 48.645 311.591 47.93 309.294 46.5C306.998 45.07 305.178 43.12 303.834 40.65C302.534 38.18 301.884 35.4067 301.884 32.33C301.884 29.21 302.534 26.415 303.834 23.945C305.178 21.475 306.976 19.525 309.229 18.095C311.526 16.665 314.148 15.95 317.094 15.95C319.348 15.95 321.363 16.405 323.139 17.315C324.959 18.225 326.411 19.5033 327.494 21.15C328.621 22.7533 329.228 24.5733 329.314 26.61V37.79C329.228 39.8267 328.643 41.6683 327.559 43.315C326.476 44.9617 325.024 46.2617 323.204 47.215C321.384 48.1683 319.348 48.645 317.094 48.645ZM318.524 40.78C320.128 40.78 321.514 40.4333 322.684 39.74C323.898 39.0033 324.829 38.0067 325.479 36.75C326.173 35.45 326.519 33.955 326.519 32.265C326.519 30.6183 326.173 29.1667 325.479 27.91C324.829 26.61 323.898 25.6133 322.684 24.92C321.514 24.1833 320.149 23.815 318.589 23.815C316.986 23.815 315.578 24.1833 314.364 24.92C313.194 25.6567 312.263 26.6533 311.569 27.91C310.919 29.1667 310.594 30.6183 310.594 32.265C310.594 33.955 310.919 35.45 311.569 36.75C312.263 38.0067 313.216 39.0033 314.429 39.74C315.643 40.4333 317.008 40.78 318.524 40.78ZM334.514 47.995H326.064V39.545L327.429 31.875L325.999 24.335V1H334.514V47.995Z"/>
<path d="M356.802 48.645C353.639 48.645 350.779 47.93 348.222 46.5C345.709 45.0267 343.694 43.055 342.177 40.585C340.704 38.0717 339.967 35.2767 339.967 32.2C339.967 29.1233 340.704 26.3717 342.177 23.945C343.65 21.475 345.665 19.525 348.222 18.095C350.779 16.6217 353.617 15.885 356.737 15.885C359.944 15.885 362.804 16.6217 365.317 18.095C367.874 19.525 369.889 21.475 371.362 23.945C372.835 26.3717 373.572 29.1233 373.572 32.2C373.572 35.2767 372.835 38.0717 371.362 40.585C369.889 43.055 367.874 45.0267 365.317 46.5C362.804 47.93 359.965 48.645 356.802 48.645ZM356.737 40.715C358.34 40.715 359.749 40.3683 360.962 39.675C362.219 38.9383 363.172 37.9417 363.822 36.685C364.515 35.385 364.862 33.9117 364.862 32.265C364.862 30.6183 364.515 29.1667 363.822 27.91C363.129 26.6533 362.175 25.6783 360.962 24.985C359.749 24.2483 358.34 23.88 356.737 23.88C355.177 23.88 353.79 24.2483 352.577 24.985C351.364 25.6783 350.41 26.6533 349.717 27.91C349.024 29.1667 348.677 30.6183 348.677 32.265C348.677 33.9117 349.024 35.385 349.717 36.685C350.41 37.9417 351.364 38.9383 352.577 39.675C353.79 40.3683 355.177 40.715 356.737 40.715Z"/>
<path d="M400.179 47.995V29.99C400.179 28.1267 399.594 26.61 398.424 25.44C397.254 24.27 395.737 23.685 393.874 23.685C392.661 23.685 391.577 23.945 390.624 24.465C389.671 24.985 388.912 25.7217 388.349 26.675C387.829 27.6283 387.569 28.7333 387.569 29.99L384.254 28.3C384.254 25.83 384.774 23.685 385.814 21.865C386.897 20.0017 388.371 18.55 390.234 17.51C392.141 16.47 394.286 15.95 396.669 15.95C398.966 15.95 401.024 16.535 402.844 17.705C404.664 18.8317 406.094 20.3267 407.134 22.19C408.174 24.01 408.694 25.9817 408.694 28.105V47.995H400.179ZM379.054 47.995V16.6H387.569V47.995H379.054Z"/>
<path d="M430.568 48.645C427.275 48.645 424.35 47.9517 421.793 46.565C419.236 45.135 417.2 43.185 415.683 40.715C414.21 38.245 413.473 35.4283 413.473 32.265C413.473 29.145 414.188 26.3717 415.618 23.945C417.091 21.475 419.085 19.525 421.598 18.095C424.111 16.6217 426.906 15.885 429.983 15.885C433.016 15.885 435.681 16.5783 437.978 17.965C440.318 19.3083 442.138 21.1717 443.438 23.555C444.781 25.895 445.453 28.56 445.453 31.55C445.453 32.1133 445.41 32.6983 445.323 33.305C445.28 33.8683 445.171 34.5183 444.998 35.255L418.608 35.32V28.95L441.033 28.885L437.588 31.55C437.501 29.6867 437.155 28.1267 436.548 26.87C435.985 25.6133 435.14 24.66 434.013 24.01C432.93 23.3167 431.586 22.97 429.983 22.97C428.293 22.97 426.82 23.36 425.563 24.14C424.306 24.8767 423.331 25.9383 422.638 27.325C421.988 28.6683 421.663 30.2717 421.663 32.135C421.663 34.0417 422.01 35.71 422.703 37.14C423.44 38.5267 424.48 39.61 425.823 40.39C427.166 41.1267 428.726 41.495 430.503 41.495C432.106 41.495 433.558 41.235 434.858 40.715C436.158 40.1517 437.285 39.3283 438.238 38.245L443.243 43.25C441.726 45.0267 439.863 46.37 437.653 47.28C435.486 48.19 433.125 48.645 430.568 48.645Z"/>
<path d="M461.509 48.71C459.732 48.71 457.977 48.4717 456.244 47.995C454.554 47.5183 452.994 46.8683 451.564 46.045C450.134 45.1783 448.899 44.1383 447.859 42.925L452.929 37.79C454.012 39.0033 455.269 39.9133 456.699 40.52C458.129 41.1267 459.711 41.43 461.444 41.43C462.831 41.43 463.871 41.235 464.564 40.845C465.301 40.455 465.669 39.87 465.669 39.09C465.669 38.2233 465.279 37.5517 464.499 37.075C463.762 36.5983 462.787 36.2083 461.574 35.905C460.361 35.5583 459.082 35.19 457.739 34.8C456.439 34.3667 455.182 33.825 453.969 33.175C452.756 32.4817 451.759 31.55 450.979 30.38C450.242 29.1667 449.874 27.6067 449.874 25.7C449.874 23.7067 450.351 21.9733 451.304 20.5C452.301 19.0267 453.709 17.8783 455.529 17.055C457.349 16.2317 459.494 15.82 461.964 15.82C464.564 15.82 466.904 16.275 468.984 17.185C471.107 18.095 472.862 19.46 474.249 21.28L469.114 26.415C468.161 25.245 467.077 24.4 465.864 23.88C464.694 23.36 463.416 23.1 462.029 23.1C460.772 23.1 459.797 23.295 459.104 23.685C458.454 24.075 458.129 24.6167 458.129 25.31C458.129 26.09 458.497 26.6967 459.234 27.13C460.014 27.5633 461.011 27.9533 462.224 28.3C463.437 28.6033 464.694 28.9717 465.994 29.405C467.337 29.795 468.594 30.3583 469.764 31.095C470.977 31.8317 471.952 32.8067 472.689 34.02C473.469 35.2333 473.859 36.7933 473.859 38.7C473.859 41.7767 472.754 44.225 470.544 46.045C468.334 47.8217 465.322 48.71 461.509 48.71Z"/>
<path d="M479.601 47.995V16.6H488.181V47.995H479.601ZM483.891 11.53C482.504 11.53 481.356 11.075 480.446 10.165C479.536 9.21167 479.081 8.04167 479.081 6.655C479.081 5.31167 479.536 4.16333 480.446 3.21C481.356 2.25667 482.504 1.78 483.891 1.78C485.321 1.78 486.469 2.25667 487.336 3.21C488.246 4.16333 488.701 5.31167 488.701 6.655C488.701 8.04167 488.246 9.21167 487.336 10.165C486.469 11.075 485.321 11.53 483.891 11.53Z"/>
<path d="M508.854 48.645C505.994 48.645 503.416 47.93 501.119 46.5C498.822 45.07 497.024 43.12 495.724 40.65C494.424 38.18 493.774 35.4067 493.774 32.33C493.774 29.21 494.424 26.415 495.724 23.945C497.024 21.475 498.822 19.525 501.119 18.095C503.416 16.665 505.994 15.95 508.854 15.95C511.107 15.95 513.122 16.405 514.899 17.315C516.676 18.225 518.084 19.5033 519.124 21.15C520.207 22.7533 520.792 24.5733 520.879 26.61V37.92C520.792 40 520.207 41.8417 519.124 43.445C518.084 45.0483 516.676 46.3267 514.899 47.28C513.122 48.19 511.107 48.645 508.854 48.645ZM510.414 40.78C512.797 40.78 514.726 40 516.199 38.44C517.672 36.8367 518.409 34.7783 518.409 32.265C518.409 30.6183 518.062 29.1667 517.369 27.91C516.719 26.61 515.787 25.6133 514.574 24.92C513.404 24.1833 512.017 23.815 510.414 23.815C508.854 23.815 507.467 24.1833 506.254 24.92C505.084 25.6133 504.152 26.61 503.459 27.91C502.809 29.1667 502.484 30.6183 502.484 32.265C502.484 33.955 502.809 35.45 503.459 36.75C504.152 38.0067 505.084 39.0033 506.254 39.74C507.467 40.4333 508.854 40.78 510.414 40.78ZM517.954 47.995V39.545L519.319 31.875L517.954 24.335V16.6H526.404V47.995H517.954Z"/>
<path d="M554.801 48.645C552.028 48.645 549.58 48.125 547.456 47.085C545.376 46.0017 543.643 44.55 542.256 42.73L548.236 37.01C549.016 38.1367 549.948 39.0033 551.031 39.61C552.158 40.1733 553.393 40.455 554.736 40.455C556.08 40.455 557.25 40.1733 558.246 39.61C559.286 39.0467 560.066 38.2233 560.586 37.14C561.15 36.0567 561.431 34.735 561.431 33.175V2.3H570.336V32.655C570.336 35.8617 569.686 38.6783 568.386 41.105C567.13 43.4883 565.331 45.3517 562.991 46.695C560.695 47.995 557.965 48.645 554.801 48.645Z"/>
<path d="M593.131 48.645C589.838 48.645 586.913 47.9517 584.356 46.565C581.8 45.135 579.763 43.185 578.246 40.715C576.773 38.245 576.036 35.4283 576.036 32.265C576.036 29.145 576.751 26.3717 578.181 23.945C579.655 21.475 581.648 19.525 584.161 18.095C586.675 16.6217 589.47 15.885 592.546 15.885C595.58 15.885 598.245 16.5783 600.541 17.965C602.881 19.3083 604.701 21.1717 606.001 23.555C607.345 25.895 608.016 28.56 608.016 31.55C608.016 32.1133 607.973 32.6983 607.886 33.305C607.843 33.8683 607.735 34.5183 607.561 35.255L581.171 35.32V28.95L603.596 28.885L600.151 31.55C600.065 29.6867 599.718 28.1267 599.111 26.87C598.548 25.6133 597.703 24.66 596.576 24.01C595.493 23.3167 594.15 22.97 592.546 22.97C590.856 22.97 589.383 23.36 588.126 24.14C586.87 24.8767 585.895 25.9383 585.201 27.325C584.551 28.6683 584.226 30.2717 584.226 32.135C584.226 34.0417 584.573 35.71 585.266 37.14C586.003 38.5267 587.043 39.61 588.386 40.39C589.73 41.1267 591.29 41.495 593.066 41.495C594.67 41.495 596.121 41.235 597.421 40.715C598.721 40.1517 599.848 39.3283 600.801 38.245L605.806 43.25C604.29 45.0267 602.426 46.37 600.216 47.28C598.05 48.19 595.688 48.645 593.131 48.645Z"/>
<path d="M626.542 48.645C623.639 48.645 621.039 47.93 618.742 46.5C616.446 45.07 614.626 43.12 613.282 40.65C611.982 38.18 611.332 35.4067 611.332 32.33C611.332 29.21 611.982 26.415 613.282 23.945C614.626 21.475 616.424 19.525 618.677 18.095C620.974 16.665 623.596 15.95 626.542 15.95C628.796 15.95 630.811 16.405 632.587 17.315C634.407 18.225 635.859 19.5033 636.942 21.15C638.069 22.7533 638.676 24.5733 638.762 26.61V37.79C638.676 39.8267 638.091 41.6683 637.007 43.315C635.924 44.9617 634.472 46.2617 632.652 47.215C630.832 48.1683 628.796 48.645 626.542 48.645ZM627.972 40.78C629.576 40.78 630.962 40.4333 632.132 39.74C633.346 39.0033 634.277 38.0067 634.927 36.75C635.621 35.45 635.967 33.955 635.967 32.265C635.967 30.6183 635.621 29.1667 634.927 27.91C634.277 26.61 633.346 25.6133 632.132 24.92C630.962 24.1833 629.597 23.815 628.037 23.815C626.434 23.815 625.026 24.1833 623.812 24.92C622.642 25.6567 621.711 26.6533 621.017 27.91C620.367 29.1667 620.042 30.6183 620.042 32.265C620.042 33.955 620.367 35.45 621.017 36.75C621.711 38.0067 622.664 39.0033 623.877 39.74C625.091 40.4333 626.456 40.78 627.972 40.78ZM643.962 47.995H635.512V39.545L636.877 31.875L635.447 24.335V1H643.962V47.995Z"/>
<path d="M664.755 48.645C661.852 48.645 659.252 47.93 656.955 46.5C654.659 45.07 652.839 43.12 651.495 40.65C650.195 38.18 649.545 35.4067 649.545 32.33C649.545 29.21 650.195 26.415 651.495 23.945C652.839 21.475 654.637 19.525 656.89 18.095C659.187 16.665 661.809 15.95 664.755 15.95C667.009 15.95 669.024 16.405 670.8 17.315C672.62 18.225 674.072 19.5033 675.155 21.15C676.282 22.7533 676.889 24.5733 676.975 26.61V37.79C676.889 39.8267 676.304 41.6683 675.22 43.315C674.137 44.9617 672.685 46.2617 670.865 47.215C669.045 48.1683 667.009 48.645 664.755 48.645ZM666.185 40.78C667.789 40.78 669.175 40.4333 670.345 39.74C671.559 39.0033 672.49 38.0067 673.14 36.75C673.834 35.45 674.18 33.955 674.18 32.265C674.18 30.6183 673.834 29.1667 673.14 27.91C672.49 26.61 671.559 25.6133 670.345 24.92C669.175 24.1833 667.81 23.815 666.25 23.815C664.647 23.815 663.239 24.1833 662.025 24.92C660.855 25.6567 659.924 26.6533 659.23 27.91C658.58 29.1667 658.255 30.6183 658.255 32.265C658.255 33.955 658.58 35.45 659.23 36.75C659.924 38.0067 660.877 39.0033 662.09 39.74C663.304 40.4333 664.669 40.78 666.185 40.78ZM682.175 47.995H673.725V39.545L675.09 31.875L673.66 24.335V1H682.175V47.995Z"/>
<path d="M702.838 48.645C699.978 48.645 697.4 47.93 695.103 46.5C692.807 45.07 691.008 43.12 689.708 40.65C688.408 38.18 687.758 35.4067 687.758 32.33C687.758 29.21 688.408 26.415 689.708 23.945C691.008 21.475 692.807 19.525 695.103 18.095C697.4 16.665 699.978 15.95 702.838 15.95C705.092 15.95 707.107 16.405 708.883 17.315C710.66 18.225 712.068 19.5033 713.108 21.15C714.192 22.7533 714.777 24.5733 714.863 26.61V37.92C714.777 40 714.192 41.8417 713.108 43.445C712.068 45.0483 710.66 46.3267 708.883 47.28C707.107 48.19 705.092 48.645 702.838 48.645ZM704.398 40.78C706.782 40.78 708.71 40 710.183 38.44C711.657 36.8367 712.393 34.7783 712.393 32.265C712.393 30.6183 712.047 29.1667 711.353 27.91C710.703 26.61 709.772 25.6133 708.558 24.92C707.388 24.1833 706.002 23.815 704.398 23.815C702.838 23.815 701.452 24.1833 700.238 24.92C699.068 25.6133 698.137 26.61 697.443 27.91C696.793 29.1667 696.468 30.6183 696.468 32.265C696.468 33.955 696.793 35.45 697.443 36.75C698.137 38.0067 699.068 39.0033 700.238 39.74C701.452 40.4333 702.838 40.78 704.398 40.78ZM711.938 47.995V39.545L713.303 31.875L711.938 24.335V16.6H720.388V47.995H711.938Z"/>
<path d="M749.046 47.995V29.99C749.046 28.1267 748.461 26.61 747.291 25.44C746.121 24.27 744.604 23.685 742.741 23.685C741.528 23.685 740.444 23.945 739.491 24.465C738.538 24.985 737.779 25.7217 737.216 26.675C736.696 27.6283 736.436 28.7333 736.436 29.99L733.121 28.3C733.121 25.83 733.641 23.685 734.681 21.865C735.721 20.0017 737.151 18.55 738.971 17.51C740.834 16.47 742.958 15.95 745.341 15.95C747.724 15.95 749.826 16.47 751.646 17.51C753.509 18.55 754.961 19.98 756.001 21.8C757.041 23.62 757.561 25.7217 757.561 28.105V47.995H749.046ZM727.921 47.995V1H736.436V47.995H727.921Z"/>
</mask>
<path d="M18.014 48.645C14.3306 48.645 11.1673 48.0167 8.52397 46.76C5.92396 45.5033 3.5623 43.6183 1.43896 41.105L7.28897 35.255C8.6323 37.0317 10.1923 38.4183 11.969 39.415C13.7456 40.3683 15.9123 40.845 18.469 40.845C20.7656 40.845 22.5856 40.39 23.929 39.48C25.3156 38.57 26.009 37.3133 26.009 35.71C26.009 34.3233 25.619 33.1967 24.839 32.33C24.059 31.4633 23.019 30.7267 21.719 30.12C20.4623 29.5133 19.054 28.9717 17.494 28.495C15.9773 27.975 14.439 27.39 12.879 26.74C11.3623 26.09 9.95396 25.2883 8.65396 24.335C7.3973 23.3383 6.37896 22.0817 5.59896 20.565C4.81896 19.005 4.42896 17.055 4.42896 14.715C4.42896 11.9417 5.10063 9.58 6.44396 7.63C7.7873 5.68 9.62897 4.185 11.969 3.145C14.309 2.105 16.9523 1.585 19.899 1.585C23.019 1.585 25.8356 2.17 28.349 3.34C30.8623 4.51 32.9206 6.02667 34.524 7.89L28.674 13.74C27.3306 12.2667 25.944 11.1833 24.514 10.49C23.1273 9.79667 21.5456 9.45 19.769 9.45C17.7323 9.45 16.129 9.84 14.959 10.62C13.789 11.4 13.204 12.5267 13.204 14C13.204 15.2567 13.594 16.275 14.374 17.055C15.154 17.835 16.1723 18.5067 17.429 19.07C18.729 19.6333 20.1373 20.175 21.654 20.695C23.214 21.215 24.7523 21.8 26.269 22.45C27.829 23.1 29.2373 23.945 30.494 24.985C31.794 26.025 32.834 27.3683 33.614 29.015C34.394 30.6183 34.784 32.6117 34.784 34.995C34.784 39.2417 33.289 42.5783 30.299 45.005C27.309 47.4317 23.214 48.645 18.014 48.645Z" fill="#F7F5ED"/>
<path d="M55.6119 48.645C52.3186 48.645 49.3936 47.9517 46.8369 46.565C44.2802 45.135 42.2436 43.185 40.7269 40.715C39.2536 38.245 38.5169 35.4283 38.5169 32.265C38.5169 29.145 39.2319 26.3717 40.6619 23.945C42.1352 21.475 44.1286 19.525 46.6419 18.095C49.1552 16.6217 51.9502 15.885 55.0269 15.885C58.0602 15.885 60.7252 16.5783 63.0219 17.965C65.3619 19.3083 67.1819 21.1717 68.4819 23.555C69.8252 25.895 70.4969 28.56 70.4969 31.55C70.4969 32.1133 70.4536 32.6983 70.3669 33.305C70.3236 33.8683 70.2152 34.5183 70.0419 35.255L43.6519 35.32V28.95L66.0769 28.885L62.6319 31.55C62.5452 29.6867 62.1986 28.1267 61.5919 26.87C61.0286 25.6133 60.1836 24.66 59.0569 24.01C57.9736 23.3167 56.6302 22.97 55.0269 22.97C53.3369 22.97 51.8636 23.36 50.6069 24.14C49.3502 24.8767 48.3752 25.9383 47.6819 27.325C47.0319 28.6683 46.7069 30.2717 46.7069 32.135C46.7069 34.0417 47.0536 35.71 47.7469 37.14C48.4836 38.5267 49.5236 39.61 50.8669 40.39C52.2102 41.1267 53.7702 41.495 55.5469 41.495C57.1502 41.495 58.6019 41.235 59.9019 40.715C61.2019 40.1517 62.3286 39.3283 63.2819 38.245L68.2869 43.25C66.7702 45.0267 64.9069 46.37 62.6969 47.28C60.5302 48.19 58.1686 48.645 55.6119 48.645Z" fill="#F7F5ED"/>
<path d="M95.7829 47.995L83.6279 31.81L95.7179 16.6H105.533L91.3629 33.76L91.6879 29.6L106.183 47.995H95.7829ZM75.7629 47.995V1H84.2779V47.995H75.7629Z" fill="#F7F5ED"/>
<path d="M123.399 48.645C120.235 48.645 117.375 47.93 114.819 46.5C112.305 45.0267 110.29 43.055 108.774 40.585C107.3 38.0717 106.564 35.2767 106.564 32.2C106.564 29.1233 107.3 26.3717 108.774 23.945C110.247 21.475 112.262 19.525 114.819 18.095C117.375 16.6217 120.214 15.885 123.334 15.885C126.54 15.885 129.4 16.6217 131.914 18.095C134.47 19.525 136.485 21.475 137.959 23.945C139.432 26.3717 140.169 29.1233 140.169 32.2C140.169 35.2767 139.432 38.0717 137.959 40.585C136.485 43.055 134.47 45.0267 131.914 46.5C129.4 47.93 126.562 48.645 123.399 48.645ZM123.334 40.715C124.937 40.715 126.345 40.3683 127.559 39.675C128.815 38.9383 129.769 37.9417 130.419 36.685C131.112 35.385 131.459 33.9117 131.459 32.265C131.459 30.6183 131.112 29.1667 130.419 27.91C129.725 26.6533 128.772 25.6783 127.559 24.985C126.345 24.2483 124.937 23.88 123.334 23.88C121.774 23.88 120.387 24.2483 119.174 24.985C117.96 25.6783 117.007 26.6533 116.314 27.91C115.62 29.1667 115.274 30.6183 115.274 32.265C115.274 33.9117 115.62 35.385 116.314 36.685C117.007 37.9417 117.96 38.9383 119.174 39.675C120.387 40.3683 121.774 40.715 123.334 40.715Z" fill="#F7F5ED"/>
<path d="M145.651 47.995V1H154.166V47.995H145.651Z" fill="#F7F5ED"/>
<path d="M174.84 48.645C171.98 48.645 169.402 47.93 167.105 46.5C164.809 45.07 163.01 43.12 161.71 40.65C160.41 38.18 159.76 35.4067 159.76 32.33C159.76 29.21 160.41 26.415 161.71 23.945C163.01 21.475 164.809 19.525 167.105 18.095C169.402 16.665 171.98 15.95 174.84 15.95C177.094 15.95 179.109 16.405 180.885 17.315C182.662 18.225 184.07 19.5033 185.11 21.15C186.194 22.7533 186.779 24.5733 186.865 26.61V37.92C186.779 40 186.194 41.8417 185.11 43.445C184.07 45.0483 182.662 46.3267 180.885 47.28C179.109 48.19 177.094 48.645 174.84 48.645ZM176.4 40.78C178.784 40.78 180.712 40 182.185 38.44C183.659 36.8367 184.395 34.7783 184.395 32.265C184.395 30.6183 184.049 29.1667 183.355 27.91C182.705 26.61 181.774 25.6133 180.56 24.92C179.39 24.1833 178.004 23.815 176.4 23.815C174.84 23.815 173.454 24.1833 172.24 24.92C171.07 25.6133 170.139 26.61 169.445 27.91C168.795 29.1667 168.47 30.6183 168.47 32.265C168.47 33.955 168.795 35.45 169.445 36.75C170.139 38.0067 171.07 39.0033 172.24 39.74C173.454 40.4333 174.84 40.78 176.4 40.78ZM183.94 47.995V39.545L185.305 31.875L183.94 24.335V16.6H192.39V47.995H183.94Z" fill="#F7F5ED"/>
<path d="M221.048 47.995V29.99C221.048 28.1267 220.463 26.61 219.293 25.44C218.123 24.27 216.606 23.685 214.743 23.685C213.53 23.685 212.446 23.945 211.493 24.465C210.54 24.985 209.781 25.7217 209.218 26.675C208.698 27.6283 208.438 28.7333 208.438 29.99L205.123 28.3C205.123 25.83 205.643 23.685 206.683 21.865C207.723 20.0017 209.153 18.55 210.973 17.51C212.836 16.47 214.96 15.95 217.343 15.95C219.726 15.95 221.828 16.47 223.648 17.51C225.511 18.55 226.963 19.98 228.003 21.8C229.043 23.62 229.563 25.7217 229.563 28.105V47.995H221.048ZM199.923 47.995V1H208.438V47.995H199.923Z" fill="#F7F5ED"/>
<path d="M250.027 47.995V2.3H258.867V47.995H250.027Z" fill="#F7F5ED"/>
<path d="M288.46 47.995V29.99C288.46 28.1267 287.875 26.61 286.705 25.44C285.535 24.27 284.019 23.685 282.155 23.685C280.942 23.685 279.859 23.945 278.905 24.465C277.952 24.985 277.194 25.7217 276.63 26.675C276.11 27.6283 275.85 28.7333 275.85 29.99L272.535 28.3C272.535 25.83 273.055 23.685 274.095 21.865C275.179 20.0017 276.652 18.55 278.515 17.51C280.422 16.47 282.567 15.95 284.95 15.95C287.247 15.95 289.305 16.535 291.125 17.705C292.945 18.8317 294.375 20.3267 295.415 22.19C296.455 24.01 296.975 25.9817 296.975 28.105V47.995H288.46ZM267.335 47.995V16.6H275.85V47.995H267.335Z" fill="#F7F5ED"/>
<path d="M317.094 48.645C314.191 48.645 311.591 47.93 309.294 46.5C306.998 45.07 305.178 43.12 303.834 40.65C302.534 38.18 301.884 35.4067 301.884 32.33C301.884 29.21 302.534 26.415 303.834 23.945C305.178 21.475 306.976 19.525 309.229 18.095C311.526 16.665 314.148 15.95 317.094 15.95C319.348 15.95 321.363 16.405 323.139 17.315C324.959 18.225 326.411 19.5033 327.494 21.15C328.621 22.7533 329.228 24.5733 329.314 26.61V37.79C329.228 39.8267 328.643 41.6683 327.559 43.315C326.476 44.9617 325.024 46.2617 323.204 47.215C321.384 48.1683 319.348 48.645 317.094 48.645ZM318.524 40.78C320.128 40.78 321.514 40.4333 322.684 39.74C323.898 39.0033 324.829 38.0067 325.479 36.75C326.173 35.45 326.519 33.955 326.519 32.265C326.519 30.6183 326.173 29.1667 325.479 27.91C324.829 26.61 323.898 25.6133 322.684 24.92C321.514 24.1833 320.149 23.815 318.589 23.815C316.986 23.815 315.578 24.1833 314.364 24.92C313.194 25.6567 312.263 26.6533 311.569 27.91C310.919 29.1667 310.594 30.6183 310.594 32.265C310.594 33.955 310.919 35.45 311.569 36.75C312.263 38.0067 313.216 39.0033 314.429 39.74C315.643 40.4333 317.008 40.78 318.524 40.78ZM334.514 47.995H326.064V39.545L327.429 31.875L325.999 24.335V1H334.514V47.995Z" fill="#F7F5ED"/>
<path d="M356.802 48.645C353.639 48.645 350.779 47.93 348.222 46.5C345.709 45.0267 343.694 43.055 342.177 40.585C340.704 38.0717 339.967 35.2767 339.967 32.2C339.967 29.1233 340.704 26.3717 342.177 23.945C343.65 21.475 345.665 19.525 348.222 18.095C350.779 16.6217 353.617 15.885 356.737 15.885C359.944 15.885 362.804 16.6217 365.317 18.095C367.874 19.525 369.889 21.475 371.362 23.945C372.835 26.3717 373.572 29.1233 373.572 32.2C373.572 35.2767 372.835 38.0717 371.362 40.585C369.889 43.055 367.874 45.0267 365.317 46.5C362.804 47.93 359.965 48.645 356.802 48.645ZM356.737 40.715C358.34 40.715 359.749 40.3683 360.962 39.675C362.219 38.9383 363.172 37.9417 363.822 36.685C364.515 35.385 364.862 33.9117 364.862 32.265C364.862 30.6183 364.515 29.1667 363.822 27.91C363.129 26.6533 362.175 25.6783 360.962 24.985C359.749 24.2483 358.34 23.88 356.737 23.88C355.177 23.88 353.79 24.2483 352.577 24.985C351.364 25.6783 350.41 26.6533 349.717 27.91C349.024 29.1667 348.677 30.6183 348.677 32.265C348.677 33.9117 349.024 35.385 349.717 36.685C350.41 37.9417 351.364 38.9383 352.577 39.675C353.79 40.3683 355.177 40.715 356.737 40.715Z" fill="#F7F5ED"/>
<path d="M400.179 47.995V29.99C400.179 28.1267 399.594 26.61 398.424 25.44C397.254 24.27 395.737 23.685 393.874 23.685C392.661 23.685 391.577 23.945 390.624 24.465C389.671 24.985 388.912 25.7217 388.349 26.675C387.829 27.6283 387.569 28.7333 387.569 29.99L384.254 28.3C384.254 25.83 384.774 23.685 385.814 21.865C386.897 20.0017 388.371 18.55 390.234 17.51C392.141 16.47 394.286 15.95 396.669 15.95C398.966 15.95 401.024 16.535 402.844 17.705C404.664 18.8317 406.094 20.3267 407.134 22.19C408.174 24.01 408.694 25.9817 408.694 28.105V47.995H400.179ZM379.054 47.995V16.6H387.569V47.995H379.054Z" fill="#F7F5ED"/>
<path d="M430.568 48.645C427.275 48.645 424.35 47.9517 421.793 46.565C419.236 45.135 417.2 43.185 415.683 40.715C414.21 38.245 413.473 35.4283 413.473 32.265C413.473 29.145 414.188 26.3717 415.618 23.945C417.091 21.475 419.085 19.525 421.598 18.095C424.111 16.6217 426.906 15.885 429.983 15.885C433.016 15.885 435.681 16.5783 437.978 17.965C440.318 19.3083 442.138 21.1717 443.438 23.555C444.781 25.895 445.453 28.56 445.453 31.55C445.453 32.1133 445.41 32.6983 445.323 33.305C445.28 33.8683 445.171 34.5183 444.998 35.255L418.608 35.32V28.95L441.033 28.885L437.588 31.55C437.501 29.6867 437.155 28.1267 436.548 26.87C435.985 25.6133 435.14 24.66 434.013 24.01C432.93 23.3167 431.586 22.97 429.983 22.97C428.293 22.97 426.82 23.36 425.563 24.14C424.306 24.8767 423.331 25.9383 422.638 27.325C421.988 28.6683 421.663 30.2717 421.663 32.135C421.663 34.0417 422.01 35.71 422.703 37.14C423.44 38.5267 424.48 39.61 425.823 40.39C427.166 41.1267 428.726 41.495 430.503 41.495C432.106 41.495 433.558 41.235 434.858 40.715C436.158 40.1517 437.285 39.3283 438.238 38.245L443.243 43.25C441.726 45.0267 439.863 46.37 437.653 47.28C435.486 48.19 433.125 48.645 430.568 48.645Z" fill="#F7F5ED"/>
<path d="M461.509 48.71C459.732 48.71 457.977 48.4717 456.244 47.995C454.554 47.5183 452.994 46.8683 451.564 46.045C450.134 45.1783 448.899 44.1383 447.859 42.925L452.929 37.79C454.012 39.0033 455.269 39.9133 456.699 40.52C458.129 41.1267 459.711 41.43 461.444 41.43C462.831 41.43 463.871 41.235 464.564 40.845C465.301 40.455 465.669 39.87 465.669 39.09C465.669 38.2233 465.279 37.5517 464.499 37.075C463.762 36.5983 462.787 36.2083 461.574 35.905C460.361 35.5583 459.082 35.19 457.739 34.8C456.439 34.3667 455.182 33.825 453.969 33.175C452.756 32.4817 451.759 31.55 450.979 30.38C450.242 29.1667 449.874 27.6067 449.874 25.7C449.874 23.7067 450.351 21.9733 451.304 20.5C452.301 19.0267 453.709 17.8783 455.529 17.055C457.349 16.2317 459.494 15.82 461.964 15.82C464.564 15.82 466.904 16.275 468.984 17.185C471.107 18.095 472.862 19.46 474.249 21.28L469.114 26.415C468.161 25.245 467.077 24.4 465.864 23.88C464.694 23.36 463.416 23.1 462.029 23.1C460.772 23.1 459.797 23.295 459.104 23.685C458.454 24.075 458.129 24.6167 458.129 25.31C458.129 26.09 458.497 26.6967 459.234 27.13C460.014 27.5633 461.011 27.9533 462.224 28.3C463.437 28.6033 464.694 28.9717 465.994 29.405C467.337 29.795 468.594 30.3583 469.764 31.095C470.977 31.8317 471.952 32.8067 472.689 34.02C473.469 35.2333 473.859 36.7933 473.859 38.7C473.859 41.7767 472.754 44.225 470.544 46.045C468.334 47.8217 465.322 48.71 461.509 48.71Z" fill="#F7F5ED"/>
<path d="M479.601 47.995V16.6H488.181V47.995H479.601ZM483.891 11.53C482.504 11.53 481.356 11.075 480.446 10.165C479.536 9.21167 479.081 8.04167 479.081 6.655C479.081 5.31167 479.536 4.16333 480.446 3.21C481.356 2.25667 482.504 1.78 483.891 1.78C485.321 1.78 486.469 2.25667 487.336 3.21C488.246 4.16333 488.701 5.31167 488.701 6.655C488.701 8.04167 488.246 9.21167 487.336 10.165C486.469 11.075 485.321 11.53 483.891 11.53Z" fill="#F7F5ED"/>
<path d="M508.854 48.645C505.994 48.645 503.416 47.93 501.119 46.5C498.822 45.07 497.024 43.12 495.724 40.65C494.424 38.18 493.774 35.4067 493.774 32.33C493.774 29.21 494.424 26.415 495.724 23.945C497.024 21.475 498.822 19.525 501.119 18.095C503.416 16.665 505.994 15.95 508.854 15.95C511.107 15.95 513.122 16.405 514.899 17.315C516.676 18.225 518.084 19.5033 519.124 21.15C520.207 22.7533 520.792 24.5733 520.879 26.61V37.92C520.792 40 520.207 41.8417 519.124 43.445C518.084 45.0483 516.676 46.3267 514.899 47.28C513.122 48.19 511.107 48.645 508.854 48.645ZM510.414 40.78C512.797 40.78 514.726 40 516.199 38.44C517.672 36.8367 518.409 34.7783 518.409 32.265C518.409 30.6183 518.062 29.1667 517.369 27.91C516.719 26.61 515.787 25.6133 514.574 24.92C513.404 24.1833 512.017 23.815 510.414 23.815C508.854 23.815 507.467 24.1833 506.254 24.92C505.084 25.6133 504.152 26.61 503.459 27.91C502.809 29.1667 502.484 30.6183 502.484 32.265C502.484 33.955 502.809 35.45 503.459 36.75C504.152 38.0067 505.084 39.0033 506.254 39.74C507.467 40.4333 508.854 40.78 510.414 40.78ZM517.954 47.995V39.545L519.319 31.875L517.954 24.335V16.6H526.404V47.995H517.954Z" fill="#F7F5ED"/>
<path d="M554.801 48.645C552.028 48.645 549.58 48.125 547.456 47.085C545.376 46.0017 543.643 44.55 542.256 42.73L548.236 37.01C549.016 38.1367 549.948 39.0033 551.031 39.61C552.158 40.1733 553.393 40.455 554.736 40.455C556.08 40.455 557.25 40.1733 558.246 39.61C559.286 39.0467 560.066 38.2233 560.586 37.14C561.15 36.0567 561.431 34.735 561.431 33.175V2.3H570.336V32.655C570.336 35.8617 569.686 38.6783 568.386 41.105C567.13 43.4883 565.331 45.3517 562.991 46.695C560.695 47.995 557.965 48.645 554.801 48.645Z" fill="#F7F5ED"/>
<path d="M593.131 48.645C589.838 48.645 586.913 47.9517 584.356 46.565C581.8 45.135 579.763 43.185 578.246 40.715C576.773 38.245 576.036 35.4283 576.036 32.265C576.036 29.145 576.751 26.3717 578.181 23.945C579.655 21.475 581.648 19.525 584.161 18.095C586.675 16.6217 589.47 15.885 592.546 15.885C595.58 15.885 598.245 16.5783 600.541 17.965C602.881 19.3083 604.701 21.1717 606.001 23.555C607.345 25.895 608.016 28.56 608.016 31.55C608.016 32.1133 607.973 32.6983 607.886 33.305C607.843 33.8683 607.735 34.5183 607.561 35.255L581.171 35.32V28.95L603.596 28.885L600.151 31.55C600.065 29.6867 599.718 28.1267 599.111 26.87C598.548 25.6133 597.703 24.66 596.576 24.01C595.493 23.3167 594.15 22.97 592.546 22.97C590.856 22.97 589.383 23.36 588.126 24.14C586.87 24.8767 585.895 25.9383 585.201 27.325C584.551 28.6683 584.226 30.2717 584.226 32.135C584.226 34.0417 584.573 35.71 585.266 37.14C586.003 38.5267 587.043 39.61 588.386 40.39C589.73 41.1267 591.29 41.495 593.066 41.495C594.67 41.495 596.121 41.235 597.421 40.715C598.721 40.1517 599.848 39.3283 600.801 38.245L605.806 43.25C604.29 45.0267 602.426 46.37 600.216 47.28C598.05 48.19 595.688 48.645 593.131 48.645Z" fill="#F7F5ED"/>
<path d="M626.542 48.645C623.639 48.645 621.039 47.93 618.742 46.5C616.446 45.07 614.626 43.12 613.282 40.65C611.982 38.18 611.332 35.4067 611.332 32.33C611.332 29.21 611.982 26.415 613.282 23.945C614.626 21.475 616.424 19.525 618.677 18.095C620.974 16.665 623.596 15.95 626.542 15.95C628.796 15.95 630.811 16.405 632.587 17.315C634.407 18.225 635.859 19.5033 636.942 21.15C638.069 22.7533 638.676 24.5733 638.762 26.61V37.79C638.676 39.8267 638.091 41.6683 637.007 43.315C635.924 44.9617 634.472 46.2617 632.652 47.215C630.832 48.1683 628.796 48.645 626.542 48.645ZM627.972 40.78C629.576 40.78 630.962 40.4333 632.132 39.74C633.346 39.0033 634.277 38.0067 634.927 36.75C635.621 35.45 635.967 33.955 635.967 32.265C635.967 30.6183 635.621 29.1667 634.927 27.91C634.277 26.61 633.346 25.6133 632.132 24.92C630.962 24.1833 629.597 23.815 628.037 23.815C626.434 23.815 625.026 24.1833 623.812 24.92C622.642 25.6567 621.711 26.6533 621.017 27.91C620.367 29.1667 620.042 30.6183 620.042 32.265C620.042 33.955 620.367 35.45 621.017 36.75C621.711 38.0067 622.664 39.0033 623.877 39.74C625.091 40.4333 626.456 40.78 627.972 40.78ZM643.962 47.995H635.512V39.545L636.877 31.875L635.447 24.335V1H643.962V47.995Z" fill="#F7F5ED"/>
<path d="M664.755 48.645C661.852 48.645 659.252 47.93 656.955 46.5C654.659 45.07 652.839 43.12 651.495 40.65C650.195 38.18 649.545 35.4067 649.545 32.33C649.545 29.21 650.195 26.415 651.495 23.945C652.839 21.475 654.637 19.525 656.89 18.095C659.187 16.665 661.809 15.95 664.755 15.95C667.009 15.95 669.024 16.405 670.8 17.315C672.62 18.225 674.072 19.5033 675.155 21.15C676.282 22.7533 676.889 24.5733 676.975 26.61V37.79C676.889 39.8267 676.304 41.6683 675.22 43.315C674.137 44.9617 672.685 46.2617 670.865 47.215C669.045 48.1683 667.009 48.645 664.755 48.645ZM666.185 40.78C667.789 40.78 669.175 40.4333 670.345 39.74C671.559 39.0033 672.49 38.0067 673.14 36.75C673.834 35.45 674.18 33.955 674.18 32.265C674.18 30.6183 673.834 29.1667 673.14 27.91C672.49 26.61 671.559 25.6133 670.345 24.92C669.175 24.1833 667.81 23.815 666.25 23.815C664.647 23.815 663.239 24.1833 662.025 24.92C660.855 25.6567 659.924 26.6533 659.23 27.91C658.58 29.1667 658.255 30.6183 658.255 32.265C658.255 33.955 658.58 35.45 659.23 36.75C659.924 38.0067 660.877 39.0033 662.09 39.74C663.304 40.4333 664.669 40.78 666.185 40.78ZM682.175 47.995H673.725V39.545L675.09 31.875L673.66 24.335V1H682.175V47.995Z" fill="#F7F5ED"/>
<path d="M702.838 48.645C699.978 48.645 697.4 47.93 695.103 46.5C692.807 45.07 691.008 43.12 689.708 40.65C688.408 38.18 687.758 35.4067 687.758 32.33C687.758 29.21 688.408 26.415 689.708 23.945C691.008 21.475 692.807 19.525 695.103 18.095C697.4 16.665 699.978 15.95 702.838 15.95C705.092 15.95 707.107 16.405 708.883 17.315C710.66 18.225 712.068 19.5033 713.108 21.15C714.192 22.7533 714.777 24.5733 714.863 26.61V37.92C714.777 40 714.192 41.8417 713.108 43.445C712.068 45.0483 710.66 46.3267 708.883 47.28C707.107 48.19 705.092 48.645 702.838 48.645ZM704.398 40.78C706.782 40.78 708.71 40 710.183 38.44C711.657 36.8367 712.393 34.7783 712.393 32.265C712.393 30.6183 712.047 29.1667 711.353 27.91C710.703 26.61 709.772 25.6133 708.558 24.92C707.388 24.1833 706.002 23.815 704.398 23.815C702.838 23.815 701.452 24.1833 700.238 24.92C699.068 25.6133 698.137 26.61 697.443 27.91C696.793 29.1667 696.468 30.6183 696.468 32.265C696.468 33.955 696.793 35.45 697.443 36.75C698.137 38.0067 699.068 39.0033 700.238 39.74C701.452 40.4333 702.838 40.78 704.398 40.78ZM711.938 47.995V39.545L713.303 31.875L711.938 24.335V16.6H720.388V47.995H711.938Z" fill="#F7F5ED"/>
<path d="M749.046 47.995V29.99C749.046 28.1267 748.461 26.61 747.291 25.44C746.121 24.27 744.604 23.685 742.741 23.685C741.528 23.685 740.444 23.945 739.491 24.465C738.538 24.985 737.779 25.7217 737.216 26.675C736.696 27.6283 736.436 28.7333 736.436 29.99L733.121 28.3C733.121 25.83 733.641 23.685 734.681 21.865C735.721 20.0017 737.151 18.55 738.971 17.51C740.834 16.47 742.958 15.95 745.341 15.95C747.724 15.95 749.826 16.47 751.646 17.51C753.509 18.55 754.961 19.98 756.001 21.8C757.041 23.62 757.561 25.7217 757.561 28.105V47.995H749.046ZM727.921 47.995V1H736.436V47.995H727.921Z" fill="#F7F5ED"/>
<path d="M18.014 48.645C14.3306 48.645 11.1673 48.0167 8.52397 46.76C5.92396 45.5033 3.5623 43.6183 1.43896 41.105L7.28897 35.255C8.6323 37.0317 10.1923 38.4183 11.969 39.415C13.7456 40.3683 15.9123 40.845 18.469 40.845C20.7656 40.845 22.5856 40.39 23.929 39.48C25.3156 38.57 26.009 37.3133 26.009 35.71C26.009 34.3233 25.619 33.1967 24.839 32.33C24.059 31.4633 23.019 30.7267 21.719 30.12C20.4623 29.5133 19.054 28.9717 17.494 28.495C15.9773 27.975 14.439 27.39 12.879 26.74C11.3623 26.09 9.95396 25.2883 8.65396 24.335C7.3973 23.3383 6.37896 22.0817 5.59896 20.565C4.81896 19.005 4.42896 17.055 4.42896 14.715C4.42896 11.9417 5.10063 9.58 6.44396 7.63C7.7873 5.68 9.62897 4.185 11.969 3.145C14.309 2.105 16.9523 1.585 19.899 1.585C23.019 1.585 25.8356 2.17 28.349 3.34C30.8623 4.51 32.9206 6.02667 34.524 7.89L28.674 13.74C27.3306 12.2667 25.944 11.1833 24.514 10.49C23.1273 9.79667 21.5456 9.45 19.769 9.45C17.7323 9.45 16.129 9.84 14.959 10.62C13.789 11.4 13.204 12.5267 13.204 14C13.204 15.2567 13.594 16.275 14.374 17.055C15.154 17.835 16.1723 18.5067 17.429 19.07C18.729 19.6333 20.1373 20.175 21.654 20.695C23.214 21.215 24.7523 21.8 26.269 22.45C27.829 23.1 29.2373 23.945 30.494 24.985C31.794 26.025 32.834 27.3683 33.614 29.015C34.394 30.6183 34.784 32.6117 34.784 34.995C34.784 39.2417 33.289 42.5783 30.299 45.005C27.309 47.4317 23.214 48.645 18.014 48.645Z" stroke="#0A2942" stroke-width="2" mask="url(#path-1-outside-1_198_2)"/>
<path d="M55.6119 48.645C52.3186 48.645 49.3936 47.9517 46.8369 46.565C44.2802 45.135 42.2436 43.185 40.7269 40.715C39.2536 38.245 38.5169 35.4283 38.5169 32.265C38.5169 29.145 39.2319 26.3717 40.6619 23.945C42.1352 21.475 44.1286 19.525 46.6419 18.095C49.1552 16.6217 51.9502 15.885 55.0269 15.885C58.0602 15.885 60.7252 16.5783 63.0219 17.965C65.3619 19.3083 67.1819 21.1717 68.4819 23.555C69.8252 25.895 70.4969 28.56 70.4969 31.55C70.4969 32.1133 70.4536 32.6983 70.3669 33.305C70.3236 33.8683 70.2152 34.5183 70.0419 35.255L43.6519 35.32V28.95L66.0769 28.885L62.6319 31.55C62.5452 29.6867 62.1986 28.1267 61.5919 26.87C61.0286 25.6133 60.1836 24.66 59.0569 24.01C57.9736 23.3167 56.6302 22.97 55.0269 22.97C53.3369 22.97 51.8636 23.36 50.6069 24.14C49.3502 24.8767 48.3752 25.9383 47.6819 27.325C47.0319 28.6683 46.7069 30.2717 46.7069 32.135C46.7069 34.0417 47.0536 35.71 47.7469 37.14C48.4836 38.5267 49.5236 39.61 50.8669 40.39C52.2102 41.1267 53.7702 41.495 55.5469 41.495C57.1502 41.495 58.6019 41.235 59.9019 40.715C61.2019 40.1517 62.3286 39.3283 63.2819 38.245L68.2869 43.25C66.7702 45.0267 64.9069 46.37 62.6969 47.28C60.5302 48.19 58.1686 48.645 55.6119 48.645Z" stroke="#0A2942" stroke-width="2" mask="url(#path-1-outside-1_198_2)"/>
<path d="M95.7829 47.995L83.6279 31.81L95.7179 16.6H105.533L91.3629 33.76L91.6879 29.6L106.183 47.995H95.7829ZM75.7629 47.995V1H84.2779V47.995H75.7629Z" stroke="#0A2942" stroke-width="2" mask="url(#path-1-outside-1_198_2)"/>
<path d="M123.399 48.645C120.235 48.645 117.375 47.93 114.819 46.5C112.305 45.0267 110.29 43.055 108.774 40.585C107.3 38.0717 106.564 35.2767 106.564 32.2C106.564 29.1233 107.3 26.3717 108.774 23.945C110.247 21.475 112.262 19.525 114.819 18.095C117.375 16.6217 120.214 15.885 123.334 15.885C126.54 15.885 129.4 16.6217 131.914 18.095C134.47 19.525 136.485 21.475 137.959 23.945C139.432 26.3717 140.169 29.1233 140.169 32.2C140.169 35.2767 139.432 38.0717 137.959 40.585C136.485 43.055 134.47 45.0267 131.914 46.5C129.4 47.93 126.562 48.645 123.399 48.645ZM123.334 40.715C124.937 40.715 126.345 40.3683 127.559 39.675C128.815 38.9383 129.769 37.9417 130.419 36.685C131.112 35.385 131.459 33.9117 131.459 32.265C131.459 30.6183 131.112 29.1667 130.419 27.91C129.725 26.6533 128.772 25.6783 127.559 24.985C126.345 24.2483 124.937 23.88 123.334 23.88C121.774 23.88 120.387 24.2483 119.174 24.985C117.96 25.6783 117.007 26.6533 116.314 27.91C115.62 29.1667 115.274 30.6183 115.274 32.265C115.274 33.9117 115.62 35.385 116.314 36.685C117.007 37.9417 117.96 38.9383 119.174 39.675C120.387 40.3683 121.774 40.715 123.334 40.715Z" stroke="#0A2942" stroke-width="2" mask="url(#path-1-outside-1_198_2)"/>
<path d="M145.651 47.995V1H154.166V47.995H145.651Z" stroke="#0A2942" stroke-width="2" mask="url(#path-1-outside-1_198_2)"/>
<path d="M174.84 48.645C171.98 48.645 169.402 47.93 167.105 46.5C164.809 45.07 163.01 43.12 161.71 40.65C160.41 38.18 159.76 35.4067 159.76 32.33C159.76 29.21 160.41 26.415 161.71 23.945C163.01 21.475 164.809 19.525 167.105 18.095C169.402 16.665 171.98 15.95 174.84 15.95C177.094 15.95 179.109 16.405 180.885 17.315C182.662 18.225 184.07 19.5033 185.11 21.15C186.194 22.7533 186.779 24.5733 186.865 26.61V37.92C186.779 40 186.194 41.8417 185.11 43.445C184.07 45.0483 182.662 46.3267 180.885 47.28C179.109 48.19 177.094 48.645 174.84 48.645ZM176.4 40.78C178.784 40.78 180.712 40 182.185 38.44C183.659 36.8367 184.395 34.7783 184.395 32.265C184.395 30.6183 184.049 29.1667 183.355 27.91C182.705 26.61 181.774 25.6133 180.56 24.92C179.39 24.1833 178.004 23.815 176.4 23.815C174.84 23.815 173.454 24.1833 172.24 24.92C171.07 25.6133 170.139 26.61 169.445 27.91C168.795 29.1667 168.47 30.6183 168.47 32.265C168.47 33.955 168.795 35.45 169.445 36.75C170.139 38.0067 171.07 39.0033 172.24 39.74C173.454 40.4333 174.84 40.78 176.4 40.78ZM183.94 47.995V39.545L185.305 31.875L183.94 24.335V16.6H192.39V47.995H183.94Z" stroke="#0A2942" stroke-width="2" mask="url(#path-1-outside-1_198_2)"/>
<path d="M221.048 47.995V29.99C221.048 28.1267 220.463 26.61 219.293 25.44C218.123 24.27 216.606 23.685 214.743 23.685C213.53 23.685 212.446 23.945 211.493 24.465C210.54 24.985 209.781 25.7217 209.218 26.675C208.698 27.6283 208.438 28.7333 208.438 29.99L205.123 28.3C205.123 25.83 205.643 23.685 206.683 21.865C207.723 20.0017 209.153 18.55 210.973 17.51C212.836 16.47 214.96 15.95 217.343 15.95C219.726 15.95 221.828 16.47 223.648 17.51C225.511 18.55 226.963 19.98 228.003 21.8C229.043 23.62 229.563 25.7217 229.563 28.105V47.995H221.048ZM199.923 47.995V1H208.438V47.995H199.923Z" stroke="#0A2942" stroke-width="2" mask="url(#path-1-outside-1_198_2)"/>
<path d="M250.027 47.995V2.3H258.867V47.995H250.027Z" stroke="#0A2942" stroke-width="2" mask="url(#path-1-outside-1_198_2)"/>
<path d="M288.46 47.995V29.99C288.46 28.1267 287.875 26.61 286.705 25.44C285.535 24.27 284.019 23.685 282.155 23.685C280.942 23.685 279.859 23.945 278.905 24.465C277.952 24.985 277.194 25.7217 276.63 26.675C276.11 27.6283 275.85 28.7333 275.85 29.99L272.535 28.3C272.535 25.83 273.055 23.685 274.095 21.865C275.179 20.0017 276.652 18.55 278.515 17.51C280.422 16.47 282.567 15.95 284.95 15.95C287.247 15.95 289.305 16.535 291.125 17.705C292.945 18.8317 294.375 20.3267 295.415 22.19C296.455 24.01 296.975 25.9817 296.975 28.105V47.995H288.46ZM267.335 47.995V16.6H275.85V47.995H267.335Z" stroke="#0A2942" stroke-width="2" mask="url(#path-1-outside-1_198_2)"/>
<path d="M317.094 48.645C314.191 48.645 311.591 47.93 309.294 46.5C306.998 45.07 305.178 43.12 303.834 40.65C302.534 38.18 301.884 35.4067 301.884 32.33C301.884 29.21 302.534 26.415 303.834 23.945C305.178 21.475 306.976 19.525 309.229 18.095C311.526 16.665 314.148 15.95 317.094 15.95C319.348 15.95 321.363 16.405 323.139 17.315C324.959 18.225 326.411 19.5033 327.494 21.15C328.621 22.7533 329.228 24.5733 329.314 26.61V37.79C329.228 39.8267 328.643 41.6683 327.559 43.315C326.476 44.9617 325.024 46.2617 323.204 47.215C321.384 48.1683 319.348 48.645 317.094 48.645ZM318.524 40.78C320.128 40.78 321.514 40.4333 322.684 39.74C323.898 39.0033 324.829 38.0067 325.479 36.75C326.173 35.45 326.519 33.955 326.519 32.265C326.519 30.6183 326.173 29.1667 325.479 27.91C324.829 26.61 323.898 25.6133 322.684 24.92C321.514 24.1833 320.149 23.815 318.589 23.815C316.986 23.815 315.578 24.1833 314.364 24.92C313.194 25.6567 312.263 26.6533 311.569 27.91C310.919 29.1667 310.594 30.6183 310.594 32.265C310.594 33.955 310.919 35.45 311.569 36.75C312.263 38.0067 313.216 39.0033 314.429 39.74C315.643 40.4333 317.008 40.78 318.524 40.78ZM334.514 47.995H326.064V39.545L327.429 31.875L325.999 24.335V1H334.514V47.995Z" stroke="#0A2942" stroke-width="2" mask="url(#path-1-outside-1_198_2)"/>
<path d="M356.802 48.645C353.639 48.645 350.779 47.93 348.222 46.5C345.709 45.0267 343.694 43.055 342.177 40.585C340.704 38.0717 339.967 35.2767 339.967 32.2C339.967 29.1233 340.704 26.3717 342.177 23.945C343.65 21.475 345.665 19.525 348.222 18.095C350.779 16.6217 353.617 15.885 356.737 15.885C359.944 15.885 362.804 16.6217 365.317 18.095C367.874 19.525 369.889 21.475 371.362 23.945C372.835 26.3717 373.572 29.1233 373.572 32.2C373.572 35.2767 372.835 38.0717 371.362 40.585C369.889 43.055 367.874 45.0267 365.317 46.5C362.804 47.93 359.965 48.645 356.802 48.645ZM356.737 40.715C358.34 40.715 359.749 40.3683 360.962 39.675C362.219 38.9383 363.172 37.9417 363.822 36.685C364.515 35.385 364.862 33.9117 364.862 32.265C364.862 30.6183 364.515 29.1667 363.822 27.91C363.129 26.6533 362.175 25.6783 360.962 24.985C359.749 24.2483 358.34 23.88 356.737 23.88C355.177 23.88 353.79 24.2483 352.577 24.985C351.364 25.6783 350.41 26.6533 349.717 27.91C349.024 29.1667 348.677 30.6183 348.677 32.265C348.677 33.9117 349.024 35.385 349.717 36.685C350.41 37.9417 351.364 38.9383 352.577 39.675C353.79 40.3683 355.177 40.715 356.737 40.715Z" stroke="#0A2942" stroke-width="2" mask="url(#path-1-outside-1_198_2)"/>
<path d="M400.179 47.995V29.99C400.179 28.1267 399.594 26.61 398.424 25.44C397.254 24.27 395.737 23.685 393.874 23.685C392.661 23.685 391.577 23.945 390.624 24.465C389.671 24.985 388.912 25.7217 388.349 26.675C387.829 27.6283 387.569 28.7333 387.569 29.99L384.254 28.3C384.254 25.83 384.774 23.685 385.814 21.865C386.897 20.0017 388.371 18.55 390.234 17.51C392.141 16.47 394.286 15.95 396.669 15.95C398.966 15.95 401.024 16.535 402.844 17.705C404.664 18.8317 406.094 20.3267 407.134 22.19C408.174 24.01 408.694 25.9817 408.694 28.105V47.995H400.179ZM379.054 47.995V16.6H387.569V47.995H379.054Z" stroke="#0A2942" stroke-width="2" mask="url(#path-1-outside-1_198_2)"/>
<path d="M430.568 48.645C427.275 48.645 424.35 47.9517 421.793 46.565C419.236 45.135 417.2 43.185 415.683 40.715C414.21 38.245 413.473 35.4283 413.473 32.265C413.473 29.145 414.188 26.3717 415.618 23.945C417.091 21.475 419.085 19.525 421.598 18.095C424.111 16.6217 426.906 15.885 429.983 15.885C433.016 15.885 435.681 16.5783 437.978 17.965C440.318 19.3083 442.138 21.1717 443.438 23.555C444.781 25.895 445.453 28.56 445.453 31.55C445.453 32.1133 445.41 32.6983 445.323 33.305C445.28 33.8683 445.171 34.5183 444.998 35.255L418.608 35.32V28.95L441.033 28.885L437.588 31.55C437.501 29.6867 437.155 28.1267 436.548 26.87C435.985 25.6133 435.14 24.66 434.013 24.01C432.93 23.3167 431.586 22.97 429.983 22.97C428.293 22.97 426.82 23.36 425.563 24.14C424.306 24.8767 423.331 25.9383 422.638 27.325C421.988 28.6683 421.663 30.2717 421.663 32.135C421.663 34.0417 422.01 35.71 422.703 37.14C423.44 38.5267 424.48 39.61 425.823 40.39C427.166 41.1267 428.726 41.495 430.503 41.495C432.106 41.495 433.558 41.235 434.858 40.715C436.158 40.1517 437.285 39.3283 438.238 38.245L443.243 43.25C441.726 45.0267 439.863 46.37 437.653 47.28C435.486 48.19 433.125 48.645 430.568 48.645Z" stroke="#0A2942" stroke-width="2" mask="url(#path-1-outside-1_198_2)"/>
<path d="M461.509 48.71C459.732 48.71 457.977 48.4717 456.244 47.995C454.554 47.5183 452.994 46.8683 451.564 46.045C450.134 45.1783 448.899 44.1383 447.859 42.925L452.929 37.79C454.012 39.0033 455.269 39.9133 456.699 40.52C458.129 41.1267 459.711 41.43 461.444 41.43C462.831 41.43 463.871 41.235 464.564 40.845C465.301 40.455 465.669 39.87 465.669 39.09C465.669 38.2233 465.279 37.5517 464.499 37.075C463.762 36.5983 462.787 36.2083 461.574 35.905C460.361 35.5583 459.082 35.19 457.739 34.8C456.439 34.3667 455.182 33.825 453.969 33.175C452.756 32.4817 451.759 31.55 450.979 30.38C450.242 29.1667 449.874 27.6067 449.874 25.7C449.874 23.7067 450.351 21.9733 451.304 20.5C452.301 19.0267 453.709 17.8783 455.529 17.055C457.349 16.2317 459.494 15.82 461.964 15.82C464.564 15.82 466.904 16.275 468.984 17.185C471.107 18.095 472.862 19.46 474.249 21.28L469.114 26.415C468.161 25.245 467.077 24.4 465.864 23.88C464.694 23.36 463.416 23.1 462.029 23.1C460.772 23.1 459.797 23.295 459.104 23.685C458.454 24.075 458.129 24.6167 458.129 25.31C458.129 26.09 458.497 26.6967 459.234 27.13C460.014 27.5633 461.011 27.9533 462.224 28.3C463.437 28.6033 464.694 28.9717 465.994 29.405C467.337 29.795 468.594 30.3583 469.764 31.095C470.977 31.8317 471.952 32.8067 472.689 34.02C473.469 35.2333 473.859 36.7933 473.859 38.7C473.859 41.7767 472.754 44.225 470.544 46.045C468.334 47.8217 465.322 48.71 461.509 48.71Z" stroke="#0A2942" stroke-width="2" mask="url(#path-1-outside-1_198_2)"/>
<path d="M479.601 47.995V16.6H488.181V47.995H479.601ZM483.891 11.53C482.504 11.53 481.356 11.075 480.446 10.165C479.536 9.21167 479.081 8.04167 479.081 6.655C479.081 5.31167 479.536 4.16333 480.446 3.21C481.356 2.25667 482.504 1.78 483.891 1.78C485.321 1.78 486.469 2.25667 487.336 3.21C488.246 4.16333 488.701 5.31167 488.701 6.655C488.701 8.04167 488.246 9.21167 487.336 10.165C486.469 11.075 485.321 11.53 483.891 11.53Z" stroke="#0A2942" stroke-width="2" mask="url(#path-1-outside-1_198_2)"/>
<path d="M508.854 48.645C505.994 48.645 503.416 47.93 501.119 46.5C498.822 45.07 497.024 43.12 495.724 40.65C494.424 38.18 493.774 35.4067 493.774 32.33C493.774 29.21 494.424 26.415 495.724 23.945C497.024 21.475 498.822 19.525 501.119 18.095C503.416 16.665 505.994 15.95 508.854 15.95C511.107 15.95 513.122 16.405 514.899 17.315C516.676 18.225 518.084 19.5033 519.124 21.15C520.207 22.7533 520.792 24.5733 520.879 26.61V37.92C520.792 40 520.207 41.8417 519.124 43.445C518.084 45.0483 516.676 46.3267 514.899 47.28C513.122 48.19 511.107 48.645 508.854 48.645ZM510.414 40.78C512.797 40.78 514.726 40 516.199 38.44C517.672 36.8367 518.409 34.7783 518.409 32.265C518.409 30.6183 518.062 29.1667 517.369 27.91C516.719 26.61 515.787 25.6133 514.574 24.92C513.404 24.1833 512.017 23.815 510.414 23.815C508.854 23.815 507.467 24.1833 506.254 24.92C505.084 25.6133 504.152 26.61 503.459 27.91C502.809 29.1667 502.484 30.6183 502.484 32.265C502.484 33.955 502.809 35.45 503.459 36.75C504.152 38.0067 505.084 39.0033 506.254 39.74C507.467 40.4333 508.854 40.78 510.414 40.78ZM517.954 47.995V39.545L519.319 31.875L517.954 24.335V16.6H526.404V47.995H517.954Z" stroke="#0A2942" stroke-width="2" mask="url(#path-1-outside-1_198_2)"/>
<path d="M554.801 48.645C552.028 48.645 549.58 48.125 547.456 47.085C545.376 46.0017 543.643 44.55 542.256 42.73L548.236 37.01C549.016 38.1367 549.948 39.0033 551.031 39.61C552.158 40.1733 553.393 40.455 554.736 40.455C556.08 40.455 557.25 40.1733 558.246 39.61C559.286 39.0467 560.066 38.2233 560.586 37.14C561.15 36.0567 561.431 34.735 561.431 33.175V2.3H570.336V32.655C570.336 35.8617 569.686 38.6783 568.386 41.105C567.13 43.4883 565.331 45.3517 562.991 46.695C560.695 47.995 557.965 48.645 554.801 48.645Z" stroke="#0A2942" stroke-width="2" mask="url(#path-1-outside-1_198_2)"/>
<path d="M593.131 48.645C589.838 48.645 586.913 47.9517 584.356 46.565C581.8 45.135 579.763 43.185 578.246 40.715C576.773 38.245 576.036 35.4283 576.036 32.265C576.036 29.145 576.751 26.3717 578.181 23.945C579.655 21.475 581.648 19.525 584.161 18.095C586.675 16.6217 589.47 15.885 592.546 15.885C595.58 15.885 598.245 16.5783 600.541 17.965C602.881 19.3083 604.701 21.1717 606.001 23.555C607.345 25.895 608.016 28.56 608.016 31.55C608.016 32.1133 607.973 32.6983 607.886 33.305C607.843 33.8683 607.735 34.5183 607.561 35.255L581.171 35.32V28.95L603.596 28.885L600.151 31.55C600.065 29.6867 599.718 28.1267 599.111 26.87C598.548 25.6133 597.703 24.66 596.576 24.01C595.493 23.3167 594.15 22.97 592.546 22.97C590.856 22.97 589.383 23.36 588.126 24.14C586.87 24.8767 585.895 25.9383 585.201 27.325C584.551 28.6683 584.226 30.2717 584.226 32.135C584.226 34.0417 584.573 35.71 585.266 37.14C586.003 38.5267 587.043 39.61 588.386 40.39C589.73 41.1267 591.29 41.495 593.066 41.495C594.67 41.495 596.121 41.235 597.421 40.715C598.721 40.1517 599.848 39.3283 600.801 38.245L605.806 43.25C604.29 45.0267 602.426 46.37 600.216 47.28C598.05 48.19 595.688 48.645 593.131 48.645Z" stroke="#0A2942" stroke-width="2" mask="url(#path-1-outside-1_198_2)"/>
<path d="M626.542 48.645C623.639 48.645 621.039 47.93 618.742 46.5C616.446 45.07 614.626 43.12 613.282 40.65C611.982 38.18 611.332 35.4067 611.332 32.33C611.332 29.21 611.982 26.415 613.282 23.945C614.626 21.475 616.424 19.525 618.677 18.095C620.974 16.665 623.596 15.95 626.542 15.95C628.796 15.95 630.811 16.405 632.587 17.315C634.407 18.225 635.859 19.5033 636.942 21.15C638.069 22.7533 638.676 24.5733 638.762 26.61V37.79C638.676 39.8267 638.091 41.6683 637.007 43.315C635.924 44.9617 634.472 46.2617 632.652 47.215C630.832 48.1683 628.796 48.645 626.542 48.645ZM627.972 40.78C629.576 40.78 630.962 40.4333 632.132 39.74C633.346 39.0033 634.277 38.0067 634.927 36.75C635.621 35.45 635.967 33.955 635.967 32.265C635.967 30.6183 635.621 29.1667 634.927 27.91C634.277 26.61 633.346 25.6133 632.132 24.92C630.962 24.1833 629.597 23.815 628.037 23.815C626.434 23.815 625.026 24.1833 623.812 24.92C622.642 25.6567 621.711 26.6533 621.017 27.91C620.367 29.1667 620.042 30.6183 620.042 32.265C620.042 33.955 620.367 35.45 621.017 36.75C621.711 38.0067 622.664 39.0033 623.877 39.74C625.091 40.4333 626.456 40.78 627.972 40.78ZM643.962 47.995H635.512V39.545L636.877 31.875L635.447 24.335V1H643.962V47.995Z" stroke="#0A2942" stroke-width="2" mask="url(#path-1-outside-1_198_2)"/>
<path d="M664.755 48.645C661.852 48.645 659.252 47.93 656.955 46.5C654.659 45.07 652.839 43.12 651.495 40.65C650.195 38.18 649.545 35.4067 649.545 32.33C649.545 29.21 650.195 26.415 651.495 23.945C652.839 21.475 654.637 19.525 656.89 18.095C659.187 16.665 661.809 15.95 664.755 15.95C667.009 15.95 669.024 16.405 670.8 17.315C672.62 18.225 674.072 19.5033 675.155 21.15C676.282 22.7533 676.889 24.5733 676.975 26.61V37.79C676.889 39.8267 676.304 41.6683 675.22 43.315C674.137 44.9617 672.685 46.2617 670.865 47.215C669.045 48.1683 667.009 48.645 664.755 48.645ZM666.185 40.78C667.789 40.78 669.175 40.4333 670.345 39.74C671.559 39.0033 672.49 38.0067 673.14 36.75C673.834 35.45 674.18 33.955 674.18 32.265C674.18 30.6183 673.834 29.1667 673.14 27.91C672.49 26.61 671.559 25.6133 670.345 24.92C669.175 24.1833 667.81 23.815 666.25 23.815C664.647 23.815 663.239 24.1833 662.025 24.92C660.855 25.6567 659.924 26.6533 659.23 27.91C658.58 29.1667 658.255 30.6183 658.255 32.265C658.255 33.955 658.58 35.45 659.23 36.75C659.924 38.0067 660.877 39.0033 662.09 39.74C663.304 40.4333 664.669 40.78 666.185 40.78ZM682.175 47.995H673.725V39.545L675.09 31.875L673.66 24.335V1H682.175V47.995Z" stroke="#0A2942" stroke-width="2" mask="url(#path-1-outside-1_198_2)"/>
<path d="M702.838 48.645C699.978 48.645 697.4 47.93 695.103 46.5C692.807 45.07 691.008 43.12 689.708 40.65C688.408 38.18 687.758 35.4067 687.758 32.33C687.758 29.21 688.408 26.415 689.708 23.945C691.008 21.475 692.807 19.525 695.103 18.095C697.4 16.665 699.978 15.95 702.838 15.95C705.092 15.95 707.107 16.405 708.883 17.315C710.66 18.225 712.068 19.5033 713.108 21.15C714.192 22.7533 714.777 24.5733 714.863 26.61V37.92C714.777 40 714.192 41.8417 713.108 43.445C712.068 45.0483 710.66 46.3267 708.883 47.28C707.107 48.19 705.092 48.645 702.838 48.645ZM704.398 40.78C706.782 40.78 708.71 40 710.183 38.44C711.657 36.8367 712.393 34.7783 712.393 32.265C712.393 30.6183 712.047 29.1667 711.353 27.91C710.703 26.61 709.772 25.6133 708.558 24.92C707.388 24.1833 706.002 23.815 704.398 23.815C702.838 23.815 701.452 24.1833 700.238 24.92C699.068 25.6133 698.137 26.61 697.443 27.91C696.793 29.1667 696.468 30.6183 696.468 32.265C696.468 33.955 696.793 35.45 697.443 36.75C698.137 38.0067 699.068 39.0033 700.238 39.74C701.452 40.4333 702.838 40.78 704.398 40.78ZM711.938 47.995V39.545L713.303 31.875L711.938 24.335V16.6H720.388V47.995H711.938Z" stroke="#0A2942" stroke-width="2" mask="url(#path-1-outside-1_198_2)"/>
<path d="M749.046 47.995V29.99C749.046 28.1267 748.461 26.61 747.291 25.44C746.121 24.27 744.604 23.685 742.741 23.685C741.528 23.685 740.444 23.945 739.491 24.465C738.538 24.985 737.779 25.7217 737.216 26.675C736.696 27.6283 736.436 28.7333 736.436 29.99L733.121 28.3C733.121 25.83 733.641 23.685 734.681 21.865C735.721 20.0017 737.151 18.55 738.971 17.51C740.834 16.47 742.958 15.95 745.341 15.95C747.724 15.95 749.826 16.47 751.646 17.51C753.509 18.55 754.961 19.98 756.001 21.8C757.041 23.62 757.561 25.7217 757.561 28.105V47.995H749.046ZM727.921 47.995V1H736.436V47.995H727.921Z" stroke="#0A2942" stroke-width="2" mask="url(#path-1-outside-1_198_2)"/>
</svg>
